<svg width="1200" height="320" viewBox="0 0 1200 320" xmlns="http://www.w3.org/2000/svg">
  <defs>
    <linearGradient id="sky" x1="0%" y1="0%" x2="0%" y2="100%">
      <stop offset="0%" stop-color="#1a0f08"/>
      <stop offset="45%" stop-color="#2b1408"/>
      <stop offset="100%" stop-color="#0a0503"/>
    </linearGradient>

    <linearGradient id="sun" x1="0%" y1="0%" x2="0%" y2="100%">
      <stop offset="0%" stop-color="#ffd27a"/>
      <stop offset="40%" stop-color="#ff8c00"/>
      <stop offset="100%" stop-color="#b33d00"/>
    </linearGradient>

    <linearGradient id="chrome" x1="0%" y1="0%" x2="100%" y2="100%">
      <stop offset="0%" stop-color="#fff5e6"/>
      <stop offset="25%" stop-color="#ff8c00"/>
      <stop offset="50%" stop-color="#fff5e6"/>
      <stop offset="75%" stop-color="#b33d00"/>
      <stop offset="100%" stop-color="#fff5e6"/>
    </linearGradient>

    <!-- grain texture -->
    <filter id="grain">
      <feTurbulence type="fractalNoise" baseFrequency="0.9" numOctaves="2" result="noise" seed="7"/>
      <feColorMatrix in="noise" type="matrix"
        values="0 0 0 0 0
                0 0 0 0 0
                0 0 0 0 0
                0.9 0.9 0.9 0 0" result="alphaNoise"/>
      <feComposite in="alphaNoise" in2="SourceGraphic" operator="over"/>
    </filter>

    <filter id="grainOverlay" x="0" y="0" width="100%" height="100%">
      <feTurbulence type="fractalNoise" baseFrequency="0.85" numOctaves="3" seed="22" result="noise"/>
      <feColorMatrix in="noise" type="matrix"
        values="0 0 0 0 0
                0 0 0 0 0
                0 0 0 0 0
                0 0 0 0.25 0"/>
    </filter>

    <radialGradient id="vignette" cx="50%" cy="45%" r="75%">
      <stop offset="0%" stop-color="#000000" stop-opacity="0"/>
      <stop offset="75%" stop-color="#000000" stop-opacity="0"/>
      <stop offset="100%" stop-color="#000000" stop-opacity="0.55"/>
    </radialGradient>
  </defs>

  <!-- background -->
  <rect width="1200" height="320" fill="url(#sky)"/>

  <!-- horizon grid -->
  <g stroke="#ff8c00" stroke-opacity="0.35" stroke-width="1.5">
    <line x1="0" y1="230" x2="1200" y2="230"/>
    <line x1="0" y1="250" x2="1200" y2="250"/>
    <line x1="0" y1="275" x2="1200" y2="275"/>
    <line x1="0" y1="305" x2="1200" y2="305"/>
  </g>
  <g stroke="#ff8c00" stroke-opacity="0.25" stroke-width="1">
    <line x1="600" y1="230" x2="0" y2="320"/>
    <line x1="600" y1="230" x2="120" y2="320"/>
    <line x1="600" y1="230" x2="300" y2="320"/>
    <line x1="600" y1="230" x2="500" y2="320"/>
    <line x1="600" y1="230" x2="700" y2="320"/>
    <line x1="600" y1="230" x2="900" y2="320"/>
    <line x1="600" y1="230" x2="1080" y2="320"/>
    <line x1="600" y1="230" x2="1200" y2="320"/>
  </g>

  <!-- sun -->
  <circle cx="600" cy="160" r="95" fill="url(#sun)" opacity="0.9"/>
  <g stroke="#0a0503" stroke-width="6">
    <line x1="505" y1="190" x2="695" y2="190"/>
    <line x1="510" y1="210" x2="690" y2="210"/>
    <line x1="520" y1="230" x2="680" y2="230"/>
  </g>

  <!-- distant towers (skyline silhouettes) -->
  <g fill="#1a0f08" opacity="0.85">
    <rect x="40" y="120" width="22" height="130"/>
    <rect x="70" y="90" width="16" height="160"/>
    <rect x="95" y="140" width="30" height="110"/>
    <rect x="1060" y="100" width="24" height="150"/>
    <rect x="1095" y="130" width="18" height="120"/>
    <rect x="1125" y="80" width="28" height="170"/>
    <rect x="1160" y="150" width="20" height="100"/>
  </g>

  <!-- scanlines -->
  <g stroke="#000000" stroke-opacity="0.15" stroke-width="1">
    <line x1="0" y1="20" x2="1200" y2="20"/>
    <line x1="0" y1="60" x2="1200" y2="60"/>
    <line x1="0" y1="100" x2="1200" y2="100"/>
    <line x1="0" y1="140" x2="1200" y2="140"/>
    <line x1="0" y1="180" x2="1200" y2="180"/>
    <line x1="0" y1="220" x2="1200" y2="220"/>
    <line x1="0" y1="260" x2="1200" y2="260"/>
    <line x1="0" y1="300" x2="1200" y2="300"/>
  </g>

  <!-- title text with chrome fill -->
  <text x="600" y="150" text-anchor="middle" font-family="Arial Black, Helvetica, sans-serif"
        font-size="78" font-weight="900" fill="url(#chrome)" letter-spacing="6"
        stroke="#0a0503" stroke-width="2">CAFFIENATED-NICK</text>

  <!-- subtitle -->
  <text x="600" y="195" text-anchor="middle" font-family="Courier New, monospace"
        font-size="20" letter-spacing="8" fill="#ffd9a8" opacity="0.9">
    CODE WIZARD // SECTOR 7 OPERATIVE // RUNNING ON CAFFEINE
  </text>

  <!-- corner brackets -->
  <g stroke="#ff8c00" stroke-width="3" fill="none" opacity="0.8">
    <path d="M 20 20 L 20 50 M 20 20 L 50 20"/>
    <path d="M 1180 20 L 1180 50 M 1180 20 L 1150 20"/>
    <path d="M 20 300 L 20 270 M 20 300 L 50 300"/>
    <path d="M 1180 300 L 1180 270 M 1180 300 L 1150 300"/>
  </g>

  <!-- vignette -->
  <rect width="1200" height="320" fill="url(#vignette)"/>

  <!-- grain overlay -->
  <rect width="1200" height="320" filter="url(#grainOverlay)" opacity="0.5"/>
</svg>
